<?xml version="1.0" standalone="no"?>
<!DOCTYPE svg PUBLIC "-//W3C//DTD SVG 20010904//EN"
 "http://www.w3.org/TR/2001/REC-SVG-20010904/DTD/svg10.dtd">
<svg version="1.0" xmlns="http://www.w3.org/2000/svg"
 width="1024.000000pt" height="1024.000000pt" viewBox="0 0 1024.000000 1024.000000"
 preserveAspectRatio="xMidYMid meet">
<metadata>
Created by potrace 1.16, written by Peter Selinger 2001-2019
</metadata>
<g transform="translate(0.000000,1024.000000) scale(0.100000,-0.100000)"
fill="#000000" stroke="none">
<path d="M0 5120 l0 -5120 5120 0 5120 0 0 5120 0 5120 -5120 0 -5120 0 0
-5120z m6303 4885 c75 -58 187 -181 187 -206 0 -5 6 -9 14 -9 8 0 23 -11 33
-25 15 -20 69 -46 130 -61 7 -2 21 -21 33 -43 l20 -40 -26 -73 c-14 -40 -46
-111 -70 -158 -24 -47 -55 -110 -69 -140 -14 -30 -43 -77 -65 -105 -87 -108
-182 -297 -300 -595 -20 -52 -47 -117 -59 -143 -45 -103 -22 -135 106 -144 63
-5 88 -12 128 -37 28 -17 58 -40 67 -52 10 -12 28 -25 40 -29 13 -3 49 -35 81
-70 52 -58 57 -69 57 -110 0 -42 2 -46 41 -65 22 -12 68 -26 101 -32 33 -6 66
-18 74 -27 7 -9 35 -43 62 -76 27 -33 66 -93 86 -134 63 -126 124 -201 165
-201 9 0 30 -7 46 -16 66 -35 305 -62 305 -34 0 37 -159 275 -191 285 -9 3
-20 12 -23 20 -3 8 -18 15 -33 15 -15 0 -43 9 -62 21 -35 21 -47 31 -271 226
-162 140 -308 255 -342 270 -16 7 -28 17 -28 23 0 6 -42 31 -94 55 -51 24 -96
51 -99 59 -8 21 9 66 24 66 26 0 144 -53 224 -101 46 -27 88 -49 94 -49 5 0
16 -6 23 -13 29 -28 130 -107 137 -107 6 0 112 -94 134 -119 73 -84 99 -97
105 -55 2 13 -11 34 -35 56 -21 20 -65 64 -98 97 -32 34 -75 69 -95 79 -19 9
-46 27 -60 40 -14 12 -52 47 -85 77 -80 71 -149 123 -184 138 -32 14 -101 72
-101 86 0 5 6 13 13 19 20 17 76 -1 138 -41 30 -21 89 -61 132 -89 262 -175
439 -321 605 -495 62 -65 120 -130 130 -144 9 -14 32 -41 49 -60 18 -19 33
-39 33 -46 0 -6 8 -14 18 -18 9 -3 30 -27 46 -53 40 -64 152 -233 168 -253 24
-30 92 -59 138 -59 25 -1 81 -8 125 -17 44 -9 148 -19 230 -22 148 -6 150 -6
153 -29 2 -14 -5 -33 -16 -45 -33 -37 -49 -79 -56 -152 -4 -38 -12 -75 -18
-82 -6 -8 -34 -13 -73 -13 -50 0 -73 -6 -118 -30 -32 -17 -72 -30 -92 -30 -30
0 -35 -3 -35 -22 0 -24 22 -152 39 -228 16 -75 32 -333 32 -519 0 -248 -33
-515 -87 -709 -65 -236 -85 -292 -159 -449 -219 -460 -548 -834 -1006 -1141
-99 -66 -301 -182 -317 -182 -4 0 -23 -10 -42 -23 -19 -13 -55 -31 -80 -39
-25 -9 -83 -32 -130 -52 -192 -82 -464 -156 -577 -156 -72 0 -199 -20 -218
-34 -14 -10 -14 -17 -4 -41 31 -80 9 -337 -32 -382 l-22 -23 -303 0 c-278 0
-303 1 -310 18 -5 9 -9 107 -9 216 0 189 -1 199 -20 207 -15 6 -9 8 20 6 l40
-2 3 119 c2 89 -1 121 -10 128 -7 4 -35 8 -62 8 -27 0 -63 4 -80 9 -17 6 -69
17 -116 26 -47 10 -113 26 -147 36 -34 10 -70 19 -80 19 -10 0 -65 18 -123 40
-58 22 -111 40 -117 40 -7 0 -42 14 -76 30 -35 17 -69 30 -74 30 -14 0 -50 19
-88 46 -17 12 -48 30 -70 40 -78 36 -348 220 -438 297 -99 85 -277 260 -338
333 -145 173 -283 383 -383 581 -41 83 -132 313 -162 413 -37 120 -94 444 -94
531 0 62 -23 98 -28 43 -1 -17 2 -23 11 -19 6 4 4 0 -5 -8 -10 -8 -18 -19 -18
-24 0 -6 -10 -13 -22 -17 -19 -5 -20 -8 -8 -15 8 -5 18 -7 22 -5 4 3 8 0 8 -5
0 -15 -77 -14 -83 2 -2 6 4 27 15 45 18 29 18 32 3 32 -13 0 -16 6 -11 23 4
19 -1 25 -36 40 -42 19 -42 33 1 39 34 4 38 26 6 34 -20 5 -23 9 -13 15 10 7
9 9 -4 9 -10 0 -18 5 -18 11 0 5 -4 7 -10 4 -17 -11 -11 -33 11 -40 l21 -7
-21 -22 c-14 -14 -22 -38 -23 -62 -3 -73 13 -369 22 -414 5 -25 14 -77 20
-116 6 -39 18 -83 26 -99 8 -15 14 -40 14 -55 0 -59 130 -410 151 -410 5 0 9
-9 9 -20 0 -22 87 -193 131 -257 16 -23 29 -44 29 -48 0 -6 40 -65 50 -75 3
-3 31 -43 62 -90 31 -47 73 -102 92 -124 20 -21 36 -42 36 -45 0 -8 46 -59
148 -166 62 -64 218 -208 232 -213 7 -3 42 -32 115 -97 46 -41 9 -18 -78 49
-98 74 -263 223 -340 305 -289 313 -551 760 -642 1096 -7 28 -25 93 -39 145
-27 95 -48 214 -66 365 -16 127 -12 584 5 697 26 174 67 337 130 518 57 163
216 477 299 590 216 296 417 504 673 694 155 115 194 130 213 82 18 -48 -26
-155 -80 -193 -20 -14 -45 -77 -36 -92 14 -22 -31 -97 -98 -165 -122 -122
-269 -333 -360 -516 -95 -190 -189 -452 -224 -625 -45 -220 -55 -329 -49 -530
10 -288 45 -477 140 -765 64 -191 101 -282 157 -386 39 -72 100 -237 100 -270
0 -25 36 -79 115 -174 154 -186 391 -380 600 -491 22 -12 47 -27 55 -33 8 -7
62 -34 120 -60 58 -26 117 -54 132 -62 14 -8 50 -19 78 -24 28 -5 63 -19 77
-30 14 -11 36 -20 48 -20 12 0 39 -7 58 -15 20 -8 48 -15 62 -15 14 0 40 -7
58 -16 22 -12 74 -19 167 -25 74 -4 151 -11 171 -14 46 -9 47 -7 60 156 8 95
8 137 -1 163 -7 21 -57 83 -129 160 -101 106 -126 140 -165 218 -89 182 -107
299 -122 794 -6 221 0 374 15 374 4 0 7 -123 6 -272 0 -370 28 -669 66 -713 5
-5 9 -18 9 -28 0 -24 50 -137 61 -137 4 0 12 -15 18 -33 6 -18 30 -51 52 -73
23 -21 45 -49 50 -62 5 -13 28 -31 54 -43 25 -11 43 -24 40 -29 -3 -4 3 -6 12
-4 28 8 128 -88 147 -139 32 -89 39 -242 34 -713 -6 -448 -6 -455 14 -448 13
4 18 2 16 -8 -3 -15 10 -20 35 -12 10 3 31 1 47 -6 23 -10 33 -9 54 5 14 9 30
14 36 10 5 -3 13 0 16 9 3 8 19 19 35 25 19 7 29 17 29 30 0 12 4 21 9 21 10
0 8 626 -2 636 -4 4 -7 -4 -7 -19 l0 -26 -24 24 c-16 16 -31 22 -45 18 -12 -3
-21 -1 -21 6 0 6 7 11 15 11 8 0 15 4 15 9 0 6 -12 6 -31 1 -20 -6 -39 -6 -50
1 -15 7 -17 6 -13 -6 4 -8 15 -15 25 -15 10 0 19 -7 19 -15 0 -9 -9 -15 -25
-15 -14 0 -28 -7 -32 -16 -5 -14 -9 -13 -24 7 -10 13 -19 34 -19 47 0 33 -16
27 -25 -10 -7 -28 -10 -18 -17 57 -30 317 -39 385 -54 429 -13 37 -41 74 -119
155 -92 95 -185 218 -185 244 0 5 -11 31 -25 59 -14 27 -25 67 -25 88 0 44 2
44 155 56 53 4 100 13 113 22 15 10 55 17 105 19 45 2 183 10 307 17 204 12
349 12 407 0 14 -2 24 -14 28 -34 4 -16 12 -33 18 -37 7 -5 17 -22 23 -39 25
-69 -84 -258 -196 -342 -25 -18 -63 -50 -86 -70 -23 -20 -53 -45 -69 -56 -37
-26 -75 -110 -74 -166 l1 -45 9 45 c15 79 29 98 109 155 43 30 82 59 85 66 6
8 10 7 17 -2 11 -18 113 92 149 159 13 26 30 53 36 60 15 16 41 102 54 175 4
29 16 88 25 132 12 61 16 144 18 357 l1 278 29 -30 c28 -27 29 -31 16 -57 -9
-19 -15 -97 -20 -248 -10 -305 -36 -465 -102 -623 -37 -88 -91 -159 -214 -276
l-91 -86 -6 -64 c-3 -36 0 -103 8 -158 16 -104 23 -129 39 -140 18 -12 92 -9
138 6 24 8 81 19 128 26 198 27 553 165 761 296 103 65 299 211 299 224 0 4
12 13 28 18 74 27 286 259 417 457 156 237 226 378 308 625 46 141 55 176 83
325 23 124 38 157 66 153 31 -4 34 -34 15 -128 -9 -41 -26 -129 -37 -195 -45
-249 -153 -552 -263 -731 -20 -34 -37 -66 -37 -72 0 -6 -15 -30 -33 -54 -18
-24 -55 -77 -81 -118 -67 -105 -243 -296 -374 -407 -18 -15 -47 -42 -65 -59
-18 -17 -40 -34 -50 -37 -9 -4 -21 -17 -27 -31 -6 -16 -20 -27 -40 -31 -19 -4
-36 -16 -42 -31 -8 -16 -19 -24 -36 -24 -28 0 -128 -64 -143 -91 -5 -9 -32
-22 -61 -29 -29 -7 -64 -23 -78 -35 -14 -13 -41 -26 -60 -30 -19 -4 -44 -13
-55 -21 -24 -15 -174 -68 -269 -95 -37 -11 -95 -31 -128 -45 -43 -18 -89 -27
-171 -33 -62 -5 -123 -13 -136 -18 -22 -9 -22 -10 -7 -26 18 -18 77 -37 114
-37 13 0 42 9 65 21 27 13 73 23 132 28 56 5 108 16 138 29 26 12 65 24 85 28
20 3 47 12 59 20 12 8 50 25 85 38 136 53 228 95 279 128 30 19 86 52 124 73
39 21 82 50 96 64 52 51 94 83 126 96 18 8 33 20 33 28 0 8 18 26 40 41 55 36
220 203 313 316 117 142 242 338 318 495 103 214 128 280 194 530 9 33 23 83
30 110 42 148 69 618 46 800 -6 50 -15 126 -21 170 -5 44 -16 104 -23 133 -17
62 -7 138 20 158 16 11 14 14 -20 29 -74 31 -151 38 -382 38 -219 0 -235 -2
-330 -28 -55 -15 -108 -35 -119 -44 -10 -9 -29 -40 -42 -68 -12 -29 -27 -53
-32 -53 -6 0 -19 -19 -31 -42 -90 -182 -153 -242 -291 -274 -41 -9 -83 -23
-92 -31 -25 -22 -52 -12 -56 20 -3 26 -2 28 18 17 29 -15 140 10 220 51 64 32
72 46 40 69 -11 8 -20 20 -20 26 0 20 -29 38 -42 26 -8 -6 -22 -6 -36 -1 l-23
9 28 25 c28 25 28 25 6 31 -19 5 -20 8 -8 20 7 8 21 11 30 8 10 -4 21 -1 26 7
14 22 11 29 -15 29 -12 0 -37 5 -53 10 -25 9 -30 16 -27 37 4 40 35 103 51
103 15 0 17 16 3 25 -5 3 -10 13 -10 21 0 21 47 17 77 -6 14 -11 39 -20 54
-20 22 0 29 -5 29 -20 0 -13 -7 -20 -18 -20 -10 0 -23 -5 -30 -12 -17 -17 -15
-58 2 -58 23 0 29 -31 6 -37 -23 -6 -27 -23 -5 -23 10 0 15 -10 15 -28 0 -16
7 -37 15 -48 8 -10 15 -27 15 -37 0 -28 20 -10 44 42 12 25 36 61 54 80 18 18
32 40 32 48 0 21 29 67 49 79 9 5 39 19 66 32 28 13 59 28 69 34 29 16 173 23
426 21 272 -1 353 -9 376 -34 10 -11 22 -19 28 -19 6 0 40 -14 74 -31 71 -34
97 -34 63 0 -12 12 -21 24 -19 25 8 7 153 26 200 27 39 0 48 3 33 9 -11 5 -83
9 -160 9 -77 -1 -147 2 -155 5 -37 14 -400 47 -502 45 -189 -2 -208 -1 -208
13 0 11 -28 14 -128 13 -106 0 -133 -3 -155 -18 -32 -21 -62 -15 -77 14 -10
18 -12 18 -34 4 -13 -9 -41 -16 -62 -15 -22 0 -50 -1 -64 -2 -18 -2 -28 4 -39
27 l-15 30 -6 -25 c-3 -14 -14 -26 -24 -28 -16 -3 -18 0 -12 23 7 27 6 27 -31
22 -60 -8 -74 -13 -83 -26 -11 -19 -33 -3 -27 20 6 20 -17 44 -32 34 -6 -3 -8
-19 -4 -35 3 -19 1 -30 -6 -30 -6 0 -11 7 -11 17 0 9 -8 34 -17 55 -14 32 -22
38 -41 36 -16 -2 -29 4 -39 20 -14 20 -14 22 4 22 10 0 23 -4 28 -9 15 -14
118 -18 122 -5 2 7 -18 14 -54 18 -58 7 -200 41 -238 57 -11 5 -49 12 -85 16
-75 9 -85 28 -13 27 76 -2 277 -15 283 -19 6 -4 185 -24 270 -31 71 -5 183
-21 238 -32 23 -5 79 -10 124 -10 l81 -1 -48 25 c-26 14 -67 27 -92 29 -25 2
-56 11 -69 19 -13 9 -30 16 -39 16 -15 0 -32 26 -23 36 3 2 18 -2 34 -11 33
-17 90 -20 99 -5 3 6 -2 13 -12 16 -10 3 -26 10 -35 15 -35 18 -104 39 -131
39 -18 0 -44 13 -69 34 l-40 34 -131 4 c-146 4 -219 24 -280 78 -42 36 -113
49 -131 25 -12 -17 -14 -17 -41 1 l-28 18 49 13 c61 16 106 9 158 -26 23 -14
52 -32 66 -38 77 -35 304 -50 353 -24 22 12 26 21 30 75 3 33 6 69 8 79 3 14
-11 25 -62 47 -37 15 -82 30 -100 31 -19 2 -43 10 -54 19 -45 37 -215 100
-270 100 -17 0 -40 7 -53 15 -12 9 -45 18 -74 21 -96 9 -118 15 -118 29 0 29
-29 42 -113 49 -88 7 -144 25 -264 82 -68 33 -74 34 -118 23 -51 -13 -67 -7
-43 18 21 20 105 37 190 37 64 0 68 2 62 21 -11 36 -10 38 26 46 19 4 49 15
65 23 17 9 40 16 52 16 28 0 37 14 18 30 -23 19 -18 43 18 76 54 50 67 58 110
63 32 5 46 13 62 37 11 18 25 40 32 50 8 12 7 2 -2 -25 -19 -56 -18 -61 5 -32
17 19 20 39 20 120 1 53 5 125 9 161 5 36 14 105 21 154 6 49 15 97 21 107 5
10 11 44 14 76 2 32 5 60 5 63 0 3 5 -3 11 -12 5 -10 18 -18 29 -18 10 0 27
-15 38 -32 12 -18 35 -46 52 -63 28 -27 32 -28 54 -15 45 29 144 154 151 193
4 20 12 35 18 34 6 -1 13 9 15 22 l4 24 -35 -22 c-30 -19 -36 -19 -47 -6 -17
20 -37 19 -49 -4 -6 -10 -24 -21 -41 -25 -29 -5 -30 -7 -17 -27 18 -25 11 -65
-9 -48 -15 12 -39 78 -36 97 2 6 -2 12 -9 12 -7 0 -9 9 -5 25 5 19 2 25 -9 25
-23 0 -36 45 -38 125 -2 64 -4 70 -24 73 -27 4 -28 0 -8 -75 12 -47 13 -58 2
-65 -8 -4 -24 -16 -38 -26 -20 -17 -21 -22 -10 -36 11 -13 11 -16 0 -16 -8 0
-31 18 -51 39 -31 33 -34 41 -23 51 15 13 16 12 -38 75 -19 22 -32 46 -30 52
3 7 -3 20 -11 29 -9 8 -16 26 -16 40 0 26 -18 31 -52 13 -17 -9 -19 -8 -16 8
3 14 12 17 36 15 26 -2 32 2 32 18 0 16 -7 20 -36 20 l-36 0 7 43 c12 70 -3
36 -29 -67 -21 -80 -32 -106 -66 -145 -53 -65 -52 -88 10 -187 70 -111 121
-216 127 -263 5 -33 1 -44 -22 -66 -22 -23 -33 -26 -61 -22 -32 5 -130 -16
-146 -32 -4 -3 -5 -23 -2 -42 5 -29 12 -38 39 -48 18 -6 36 -18 39 -26 7 -20
-1 -19 -31 5 -14 11 -32 20 -39 20 -7 0 -20 7 -29 16 -15 16 -19 14 -51 -20
-38 -40 -44 -43 -44 -21 0 8 7 15 15 15 8 0 15 2 15 4 0 2 3 12 6 21 6 14 -1
15 -52 11 -33 -3 -74 -5 -92 -5 -18 -1 -31 -5 -27 -10 3 -6 -9 -7 -30 -4 -30
5 -34 3 -29 -11 4 -10 -1 -25 -11 -36 -14 -16 -27 -18 -74 -14 -52 4 -59 2
-94 -27 -21 -17 -48 -49 -60 -71 -76 -140 -84 -163 -45 -149 16 6 27 23 37 57
24 84 43 134 52 134 12 0 11 -37 -1 -45 -5 -3 -1 -14 9 -24 34 -34 3 -101 -33
-72 -12 10 -15 6 -21 -19 -4 -17 -5 -32 -3 -34 1 -1 16 -10 31 -20 27 -17 28
-18 12 -37 -18 -19 -37 -17 -30 4 5 13 -38 37 -65 37 -9 0 -25 -7 -36 -15 -27
-20 -31 -19 -37 15 -5 21 -12 30 -26 30 -11 0 -21 6 -24 13 -3 8 -8 9 -16 1
-16 -15 12 -81 39 -89 22 -7 25 -24 10 -75 -6 -21 -6 -38 -1 -43 6 -6 6 -16
-1 -26 -7 -11 -5 -34 6 -75 16 -65 14 -76 -15 -76 -12 0 -19 7 -19 19 0 21
-19 31 -58 31 l-27 0 28 -25 c15 -14 27 -36 27 -48 0 -36 14 -49 51 -45 26 2
33 7 31 21 -2 12 4 17 19 17 15 0 19 -4 15 -16 -4 -9 -2 -22 4 -29 8 -10 8
-19 -2 -34 -19 -30 2 -49 37 -33 14 6 25 16 25 21 0 22 58 -51 65 -81 13 -59
16 -118 5 -119 -5 -1 -15 -2 -20 -3 -13 -1 -30 -26 -30 -43 0 -6 9 -15 20 -18
30 -10 25 -28 -6 -21 -30 8 -69 -13 -79 -43 -3 -10 -14 -21 -25 -24 -16 -4
-19 -11 -14 -35 4 -21 2 -31 -10 -35 -10 -4 -19 -1 -23 9 -5 13 -15 15 -44 10
-22 -3 -39 -3 -39 1 0 17 16 28 40 30 32 2 102 42 94 54 -3 5 -13 9 -24 9 -10
0 -20 7 -24 15 -8 21 -26 19 -26 -4 0 -37 -12 -51 -50 -57 -34 -6 -37 -8 -27
-25 9 -14 7 -22 -7 -38 -10 -11 -15 -24 -12 -30 8 -12 -11 -24 -24 -16 -8 5
-8 11 0 20 14 17 -7 32 -23 16 -18 -18 -29 -13 -25 12 2 16 -3 23 -19 25 -37
5 -21 52 18 52 9 0 33 11 53 25 21 14 43 22 52 18 11 -4 22 1 30 12 19 26 17
35 -6 35 -27 0 -25 25 2 44 18 13 20 20 12 43 -5 16 -19 29 -34 33 -28 7 -37
30 -21 57 18 33 -35 94 -54 63 -3 -5 -15 -10 -26 -10 -12 0 -19 -7 -19 -19 0
-14 -6 -17 -26 -13 -16 3 -30 -1 -35 -9 -8 -12 -11 -12 -19 1 -19 28 -7 45 33
44 28 -1 38 3 42 17 4 11 20 26 36 34 16 9 29 20 29 25 0 4 8 10 18 13 12 3 8
6 -13 11 -32 8 -37 10 -79 40 -27 19 -27 19 -42 -3 -9 -12 -26 -21 -41 -21
-21 0 -24 -2 -13 -15 7 -8 25 -15 41 -15 32 0 37 -11 14 -30 -13 -11 -22 -10
-50 3 -29 14 -35 14 -35 2 0 -7 5 -17 10 -20 17 -11 11 -35 -9 -35 -10 0 -24
-7 -31 -16 -16 -19 -23 -74 -10 -74 6 0 10 -11 10 -24 0 -16 5 -23 16 -22 9 0
19 -5 21 -11 3 -8 -4 -13 -18 -13 -12 0 -30 -7 -39 -15 -15 -14 -18 -14 -30 0
-17 20 -30 19 -30 -4 0 -29 28 -47 51 -33 25 16 39 15 39 -3 0 -14 -16 -20
-52 -17 -31 3 -41 -24 -39 -101 1 -25 9 -46 24 -61 24 -24 23 -57 -2 -105 -8
-14 -9 -21 -2 -17 7 4 11 -1 11 -12 0 -20 -65 -52 -108 -52 -13 0 -27 -10 -36
-27 -8 -16 -27 -41 -41 -56 -25 -26 -28 -27 -48 -13 -12 9 -39 24 -59 33 -21
10 -38 23 -38 30 0 7 -12 13 -27 13 -43 0 -73 11 -73 26 0 8 5 14 10 14 6 0
10 -4 10 -10 0 -18 19 -10 25 11 5 14 0 31 -12 48 -35 46 -8 69 34 29 26 -25
43 -17 25 12 -10 17 -10 20 3 20 37 0 -2 46 -66 78 -21 10 -35 26 -37 40 -2
12 -9 22 -16 22 -8 0 -12 15 -12 43 1 38 3 42 24 39 13 -2 25 3 28 12 3 9 12
16 20 16 22 0 16 31 -7 37 -25 7 -41 46 -33 80 5 18 3 24 -5 19 -6 -4 -11 -13
-11 -20 0 -8 -7 -19 -15 -26 -11 -9 -12 -17 -4 -31 8 -16 6 -19 -10 -19 -35 0
-51 12 -51 37 0 20 4 23 20 18 15 -5 20 -2 20 14 0 11 -4 23 -10 26 -5 3 -10
1 -10 -4 0 -6 -4 -11 -10 -11 -5 0 -10 9 -10 21 0 11 4 18 9 15 5 -3 20 3 35
15 21 17 29 18 47 8 19 -10 25 -9 36 7 7 10 13 21 13 26 0 4 9 8 20 8 13 0 20
7 20 20 0 24 -13 25 -45 4 -22 -14 -25 -14 -43 4 -17 17 -18 25 -9 61 12 45 5
60 -18 41 -27 -23 -26 -4 2 40 15 23 45 51 65 61 21 11 38 25 38 31 0 6 -8 4
-18 -5 -26 -24 -42 -21 -42 6 0 28 -17 47 -36 40 -9 -3 -14 2 -14 14 0 11 -11
30 -24 42 -13 12 -26 37 -28 54 -3 18 -8 40 -13 50 -5 12 -3 17 9 17 11 0 16
-10 17 -32 l1 -33 9 30 c6 21 5 34 -5 45 -8 8 -17 25 -21 38 -6 22 -8 23 -26
6 -15 -14 -20 -14 -23 -3 -25 71 -25 70 -46 59 -25 -13 -26 -27 -2 -33 13 -4
11 -5 -5 -6 -13 0 -23 -7 -23 -14 0 -23 -22 -38 -37 -26 -10 9 -15 5 -23 -16
-5 -14 -10 -31 -10 -36 0 -5 -8 -19 -18 -30 -19 -19 -19 -19 -37 1 -24 26 -29
26 -105 -11 -86 -42 -147 -85 -155 -108 -7 -23 14 -71 32 -71 7 0 13 -4 13 -8
0 -5 11 -14 24 -20 17 -7 23 -17 20 -30 -4 -14 3 -20 33 -29 l38 -10 -42 -2
c-34 -1 -45 3 -54 22 -7 12 -30 37 -51 56 -37 32 -39 36 -36 85 l3 51 55 27
c30 15 53 27 50 28 -3 1 -41 11 -85 23 l-80 22 -2 49 c-1 27 -7 63 -13 79 -17
49 -12 74 20 100 23 20 30 34 30 62 0 55 15 75 55 75 25 0 35 5 40 21 7 20 8
20 38 -9 59 -57 104 -92 111 -85 10 10 7 72 -4 94 -6 10 -24 26 -40 34 -17 9
-30 21 -30 28 0 17 -36 38 -55 31 -9 -4 -15 -19 -15 -38 -1 -29 -1 -30 -15
-12 -18 24 -19 60 -2 74 7 6 35 14 63 17 38 5 52 12 60 29 19 44 49 32 138
-53 47 -45 91 -81 98 -81 8 0 29 -11 48 -25 43 -32 51 -31 72 5 10 17 25 30
37 30 10 0 21 5 23 12 2 6 22 16 43 22 42 12 56 32 28 39 -13 3 -14 5 -3 6 9
0 38 -20 65 -45 44 -40 47 -54 3 -17 -14 13 -20 11 -46 -12 -18 -15 -28 -33
-25 -41 3 -8 0 -21 -7 -29 -14 -16 -3 -20 19 -6 7 5 11 13 7 19 -3 5 1 12 9
16 8 3 15 1 15 -4 0 -6 5 -10 11 -10 5 0 7 5 3 11 -4 7 1 9 12 7 11 -2 18 -10
16 -16 -1 -7 1 -12 5 -13 5 0 39 -2 77 -4 60 -4 78 -10 124 -41 l54 -36 27 26
c15 15 52 34 83 42 l54 16 -23 46 c-12 26 -23 54 -23 63 0 8 -4 19 -9 25 -5 5
-17 44 -26 87 -19 86 -50 140 -82 145 -17 3 -27 -6 -43 -37 -11 -23 -25 -41
-31 -41 -6 0 -7 5 -4 11 12 18 -27 142 -59 191 -54 83 -106 50 -106 -66 0 -55
-14 -82 -24 -48 -4 10 -21 32 -38 48 -18 16 -25 20 -17 9 23 -28 31 -122 11
-130 -8 -3 -23 2 -33 11 -18 16 -19 16 -19 -14 0 -33 -10 -38 -65 -32 -20 2
-20 2 1 -17 17 -15 39 -73 28 -73 -2 0 -14 10 -28 23 -89 82 -116 109 -116
118 0 15 38 -8 50 -31 6 -11 15 -20 21 -20 14 0 1 60 -17 81 -8 8 -14 23 -14
32 0 10 -8 17 -18 17 -10 0 -29 11 -42 25 -14 15 -35 25 -50 25 -68 0 -89
-102 -36 -179 28 -40 32 -58 10 -43 -25 17 -56 86 -61 137 -6 54 -6 55 38 95
93 86 96 87 128 82 19 -2 41 2 56 12 37 24 68 19 118 -19 31 -23 51 -49 62
-80 10 -25 22 -45 26 -45 5 0 9 25 9 56 0 89 29 121 91 103 39 -11 68 -51 94
-128 17 -53 30 -60 64 -39 45 28 100 -36 115 -132 4 -24 10 -49 15 -55 4 -5
15 -32 24 -60 29 -92 47 -125 65 -125 10 0 51 -12 92 -26 41 -14 98 -29 125
-33 28 -3 68 -17 90 -32 22 -14 58 -31 80 -38 37 -12 44 -11 80 10 22 12 47
28 55 34 32 25 108 48 185 56 165 18 179 22 193 51 14 30 45 41 167 62 l70 12
0 64 c0 59 -4 71 -40 128 -108 172 -109 173 -109 228 -1 48 2 56 31 81 43 38
69 92 88 188 17 84 81 219 147 308 l33 46 91 0 91 1 86 -65z m-2535 -1565 c29
-14 52 -28 52 -32 0 -4 -9 -12 -21 -18 -20 -11 -20 -12 -2 -25 10 -8 26 -15
36 -15 20 0 23 34 7 90 -9 32 -8 33 5 16 8 -11 15 -32 15 -47 0 -14 7 -32 15
-39 22 -19 18 -40 -7 -39 -13 1 -37 -5 -55 -12 -37 -15 -86 0 -77 24 8 22 -15
68 -36 74 -11 3 -20 11 -20 17 0 14 21 37 31 34 3 -2 29 -14 57 -28z m32 -323
c0 -7 -4 -17 -9 -22 -5 -6 -5 -36 1 -73 8 -52 7 -67 -6 -87 -10 -14 -22 -22
-31 -19 -8 3 -24 -1 -37 -10 -33 -23 -48 -20 -54 14 -9 44 -30 37 -58 -18 -14
-27 -42 -62 -63 -77 -56 -43 -61 -53 -59 -126 1 -52 7 -74 27 -105 14 -22 28
-47 32 -56 3 -10 15 -18 26 -18 11 0 24 -7 28 -15 5 -8 27 -21 49 -29 22 -8
54 -26 70 -41 29 -27 36 -28 124 -8 l25 5 -25 -25 c-14 -13 -41 -27 -62 -30
-31 -5 -40 -1 -62 23 -14 16 -59 45 -100 65 -81 39 -122 82 -152 162 -14 36
-15 57 -8 121 8 70 12 78 36 90 24 11 108 105 108 121 0 4 19 18 41 31 40 22
43 22 70 6 25 -15 29 -15 43 0 11 10 16 33 16 68 0 29 3 56 7 59 11 11 23 8
23 -6z m199 -177 c10 0 24 -11 31 -25 12 -22 11 -27 -6 -40 -10 -8 -25 -15
-33 -15 -11 0 -11 -4 2 -18 22 -24 21 -29 -5 -35 -17 -5 -19 -9 -10 -20 8 -9
29 -12 65 -10 53 3 55 2 79 -34 31 -47 26 -63 -17 -63 -47 0 -83 19 -87 44 -2
17 -9 20 -34 18 -34 -3 -54 22 -34 42 5 5 10 18 10 28 0 24 -28 78 -40 78 -13
0 -54 -78 -60 -114 -4 -20 -12 -30 -27 -32 -26 -4 -49 29 -37 54 4 9 8 26 10
37 1 11 9 24 19 30 10 5 33 20 52 33 18 12 40 22 47 22 7 0 21 9 32 21 10 11
20 16 22 10 2 -6 12 -11 21 -11z m-314 -250 c27 -25 33 -25 62 2 34 32 43 15
62 -111 17 -109 17 -109 -3 -95 -11 8 -28 14 -37 14 -10 0 -35 15 -56 33 -22
18 -60 41 -85 52 -64 26 -83 69 -52 114 14 19 23 22 52 17 19 -3 45 -14 57
-26z m151 -452 c-10 -6 -45 -10 -78 -9 -32 1 -74 -6 -94 -14 -20 -8 -47 -15
-59 -15 -25 0 -84 -37 -132 -83 -26 -24 -33 -39 -33 -70 0 -50 12 -71 50 -87
16 -7 30 -16 30 -21 0 -5 8 -9 18 -10 10 0 12 -3 5 -6 -7 -2 -35 8 -62 23 -95
51 -100 122 -15 197 101 90 144 106 284 106 81 0 101 -2 86 -11z m1918 -111
c-8 -23 57 -61 106 -62 25 -1 53 -5 64 -10 17 -8 17 -9 -5 -25 l-22 -18 32
-16 c39 -21 54 -13 49 26 -4 28 -3 29 21 25 14 -3 34 1 45 8 14 11 24 11 38 4
25 -14 49 -4 42 16 -5 13 -1 15 20 11 89 -19 83 -16 61 -33 -14 -11 -16 -17
-7 -20 7 -3 19 -11 26 -19 8 -8 26 -18 40 -24 14 -5 32 -23 40 -39 l16 -30
-54 -6 c-61 -8 -73 -3 -86 30 -5 12 -20 24 -34 27 -23 5 -24 3 -19 -26 3 -17
6 -33 6 -36 1 -3 -2 -14 -5 -25 -3 -11 -9 -32 -12 -47 -9 -41 -44 -35 -37 6 2
11 -19 36 -30 36 -5 0 -9 -6 -9 -14 0 -8 -9 -17 -19 -21 -11 -3 -22 -12 -25
-20 -8 -23 -56 -18 -101 10 -27 17 -55 24 -87 25 -50 0 -62 10 -63 50 0 36
-17 37 -36 4 -23 -42 -41 -40 -71 9 -32 50 -34 63 -13 71 9 3 15 0 15 -9 0
-10 16 -13 65 -13 69 0 77 7 54 50 l-11 21 -18 -23 c-24 -32 -47 -17 -26 16 9
13 16 39 16 58 0 24 5 36 18 39 9 3 18 5 19 6 1 0 0 -5 -3 -12z m-1044 -48 c0
-46 -14 -96 -72 -246 -40 -107 -74 -225 -80 -283 -3 -30 0 -34 28 -42 32 -8
72 -44 61 -54 -3 -4 -21 3 -40 15 -19 11 -39 21 -44 21 -9 0 -37 -99 -30 -106
1 -1 50 -6 107 -9 l105 -7 -34 19 c-35 20 -52 43 -31 43 6 0 28 -9 50 -20 27
-14 38 -25 34 -35 -4 -10 0 -15 13 -15 19 0 81 -29 158 -75 39 -23 59 -24 133
-9 16 3 22 0 22 -14 0 -14 -14 -20 -67 -30 -75 -14 -93 -25 -93 -56 -1 -61
-68 -146 -116 -146 -13 0 -44 -7 -69 -16 -42 -14 -52 -14 -109 0 -96 24 -100
23 -124 -33 -27 -66 -61 -82 -245 -120 -157 -33 -267 -62 -267 -73 0 -10 72 0
83 11 6 6 22 11 36 11 14 0 53 7 87 16 35 8 74 14 86 12 14 -2 -2 -10 -45 -20
-37 -10 -82 -24 -100 -31 -18 -8 -50 -20 -73 -26 -22 -6 -49 -20 -59 -31 -10
-11 -22 -20 -26 -20 -4 0 -34 15 -66 34 -32 19 -77 39 -100 45 -75 20 -76 67
-4 135 17 17 31 38 31 48 0 22 18 23 40 3 9 -8 50 -23 91 -33 41 -11 88 -26
104 -34 l29 -16 -55 -11 c-33 -7 -84 -9 -129 -5 -66 5 -78 4 -99 -13 l-24 -20
27 -5 c23 -5 27 -3 23 13 -4 15 0 19 24 19 17 0 44 -7 61 -16 26 -14 38 -14
64 -5 56 20 137 39 239 56 6 1 22 3 38 3 30 2 38 27 10 34 -10 2 -54 1 -98 -3
-79 -8 -117 -3 -230 27 -69 18 -145 70 -145 98 0 38 238 266 345 330 l54 33
68 -13 c37 -7 105 -16 149 -20 l82 -7 6 49 c3 27 6 58 7 69 1 11 5 47 10 81 5
33 9 89 10 125 1 35 7 68 13 72 8 6 7 10 -3 14 -7 3 -9 8 -5 12 15 10 54 100
54 122 0 13 8 23 20 26 24 6 21 29 -4 25 -24 -4 -20 6 14 37 17 15 35 44 41
64 13 49 29 47 29 -4z m1657 -234 c31 -58 33 -65 33 -100 0 -70 -53 -106 -80
-55 -6 10 -23 21 -39 25 -16 3 -35 12 -41 20 -17 20 -1 63 31 86 16 11 29 26
29 34 0 15 18 25 38 22 7 -1 20 -15 29 -32z m-2813 -172 c-10 -15 -35 -61 -56
-101 -22 -44 -66 -104 -106 -147 -76 -81 -102 -126 -102 -177 -1 -18 -7 -61
-14 -96 -8 -34 -13 -98 -12 -140 1 -72 3 -81 34 -120 36 -45 75 -59 139 -49
44 8 148 57 188 90 l29 24 -24 8 c-16 5 -25 4 -28 -4 -8 -23 -42 21 -42 54 0
17 -6 37 -12 44 -11 11 -9 11 10 2 18 -10 23 -9 28 4 4 11 20 15 55 15 26 0
59 5 73 11 14 7 32 9 40 6 27 -11 6 -34 -35 -41 -29 -5 -39 -11 -39 -25 0 -11
-3 -28 -6 -38 -4 -14 -4 -15 4 -4 5 7 16 11 23 9 9 -3 -3 -21 -36 -55 -64 -66
-152 -104 -253 -111 l-72 -5 -44 44 c-64 65 -67 102 -27 394 9 65 2 54 130
199 29 34 67 88 83 121 34 67 77 129 85 121 3 -3 -3 -18 -13 -33z m2747 -219
c-12 -24 -21 -46 -21 -49 0 -13 -76 -167 -123 -250 -72 -127 -93 -156 -128
-177 -30 -18 -31 -22 -27 -68 5 -50 18 -73 93 -170 19 -25 49 -79 66 -120 28
-65 33 -92 39 -200 6 -99 4 -130 -7 -147 -7 -13 -18 -23 -24 -23 -6 0 -43 31
-83 69 -39 38 -80 71 -92 75 -11 3 -34 21 -50 38 -26 29 -27 30 -4 15 14 -9
39 -24 57 -33 18 -9 53 -38 78 -65 58 -62 93 -85 106 -72 11 11 -14 201 -37
273 -7 25 -11 32 -9 17 9 -48 -5 -49 -68 0 -72 55 -349 324 -342 332 3 3 34
-22 68 -56 82 -80 290 -263 300 -263 4 0 7 4 7 9 0 8 -96 143 -159 222 -11 15
-43 66 -72 115 -28 49 -60 99 -71 111 l-20 21 22 7 c12 4 22 5 23 3 18 -34 30
-44 62 -50 24 -5 42 -4 51 3 9 7 19 7 34 -1 37 -20 65 -5 84 45 10 25 22 43
27 39 5 -3 9 4 9 15 0 11 9 22 21 26 11 4 18 9 15 12 -2 3 11 34 30 70 19 37
34 79 34 99 0 22 7 40 20 51 14 12 18 24 13 42 -5 19 -3 23 10 18 23 -9 65 46
75 96 l7 42 3 -38 c2 -24 -5 -56 -17 -83z m-1181 -329 c33 -14 66 -25 73 -25
11 0 15 -46 21 -241 6 -214 5 -244 -9 -266 -9 -14 -18 -23 -19 -21 -1 1 2 91
6 198 5 134 4 213 -3 252 -11 55 -13 58 -56 74 -68 26 -77 16 -84 -92 -4 -65
-11 -100 -27 -129 -20 -36 -21 -49 -16 -135 4 -52 13 -108 22 -125 21 -44 52
-75 76 -76 12 -1 5 -5 -14 -9 l-35 -7 25 -11 c24 -10 24 -11 3 -11 -27 -1 -59
31 -84 84 -27 57 -28 283 -1 322 9 15 17 43 18 63 0 19 2 68 4 108 5 85 8 86
100 47z m290 -422 c11 -122 30 -157 86 -161 50 -4 56 4 79 90 17 66 17 67 -4
94 -20 26 -28 54 -14 54 4 0 22 -6 41 -12 l34 -13 -7 -75 c-7 -86 -24 -117
-80 -143 -105 -51 -166 29 -164 218 0 113 16 85 29 -52z m-2013 -1863 c5 0 18
-8 29 -18 27 -26 142 -92 160 -92 7 0 14 -4 14 -10 0 -8 199 -109 275 -139 11
-5 31 -13 45 -19 71 -31 105 -42 130 -42 16 0 30 -5 32 -11 5 -14 172 -69 208
-69 14 0 30 -4 35 -9 6 -6 21 -12 35 -15 166 -37 273 -56 312 -56 26 0 50 -5
54 -11 9 -15 -125 -7 -206 14 -36 9 -110 23 -165 31 -108 17 -283 81 -590 215
-101 45 -435 249 -435 267 0 3 13 -4 29 -15 16 -12 33 -21 38 -21z m117 -606
c10 -4 16 -18 16 -41 0 -71 -101 -122 -285 -146 -113 -15 -130 -22 -174 -72
-26 -30 -81 -124 -81 -139 0 -2 33 8 73 22 57 21 90 27 162 27 79 0 97 -4 148
-28 82 -41 109 -84 115 -186 3 -62 0 -92 -19 -151 -60 -190 -246 -380 -468
-476 -129 -56 -195 -67 -364 -62 -140 5 -150 4 -194 -19 -129 -65 -244 3 -231
137 15 148 222 397 460 553 74 48 80 54 133 152 31 57 79 131 107 165 36 45
47 65 37 70 -25 16 -214 32 -317 27 -134 -6 -202 -28 -259 -82 -37 -36 -43
-47 -43 -83 0 -95 98 -108 264 -34 l59 26 29 -34 29 -35 -38 -33 c-161 -138
-404 -163 -485 -49 -33 46 -36 135 -8 209 52 138 189 231 390 264 109 18 186
18 400 -2 180 -16 281 -13 400 11 75 15 122 18 144 9z m1857 -463 c39 -31 31
-89 -45 -318 -37 -112 -66 -220 -66 -242 0 -79 54 -90 122 -24 37 36 44 36 80
5 16 -13 16 -17 -3 -54 -27 -54 -100 -125 -152 -148 -78 -36 -143 -22 -184 39
-18 27 -23 48 -23 102 0 38 -3 69 -6 69 -3 0 -32 -25 -63 -57 -111 -112 -231
-168 -305 -143 -42 13 -80 55 -96 105 -18 54 -7 78 45 103 60 29 69 28 80 -10
13 -43 49 -56 105 -39 88 26 203 180 332 448 86 178 122 210 179 164z m1692
-22 c20 -7 37 -16 37 -21 0 -4 -29 -68 -65 -141 -61 -126 -90 -208 -68 -194 5
3 51 7 101 8 50 2 96 5 101 9 6 3 33 57 61 119 27 63 67 141 87 174 l36 59 46
-6 c25 -3 49 -10 54 -15 5 -5 -11 -47 -36 -97 -91 -181 -175 -428 -192 -559
-11 -87 -9 -85 -78 -85 -34 0 -68 4 -76 9 -17 11 -9 83 19 174 28 90 27 97
-17 97 -55 0 -165 -19 -179 -31 -30 -25 -85 -218 -97 -339 -2 -23 -6 -25 -47
-22 -25 1 -60 5 -79 8 l-34 5 7 61 c5 51 39 166 71 241 6 14 2 17 -21 17 -15
0 -54 -7 -86 -16 -32 -9 -61 -15 -63 -12 -3 2 -8 25 -11 50 l-6 46 53 19 c30
11 84 26 120 32 36 7 70 16 76 19 6 4 30 50 53 102 87 198 158 317 184 306 6
-3 28 -10 49 -17z m-2740 -41 c2 -18 1 -39 -3 -47 -4 -8 -43 -23 -86 -33 -119
-28 -233 -89 -313 -167 -84 -82 -111 -131 -111 -206 0 -95 51 -118 156 -69 61
27 231 206 284 297 25 42 51 77 58 77 18 0 92 -48 92 -60 0 -6 -16 -42 -35
-80 -55 -109 -87 -213 -75 -244 13 -36 46 -34 99 6 41 30 44 31 70 15 14 -8
27 -24 29 -34 5 -31 -72 -108 -140 -142 -137 -69 -228 -20 -228 122 l0 39 -67
-62 c-90 -81 -172 -121 -261 -128 -147 -10 -214 77 -182 234 21 100 64 170
164 269 152 150 319 228 527 244 12 1 18 -9 22 -31z m2045 -16 c2 -28 -1 -43
-10 -46 -7 -2 -47 -12 -88 -21 -148 -33 -299 -129 -374 -238 -30 -44 -39 -67
-43 -115 -5 -56 -4 -62 21 -87 24 -24 33 -26 68 -21 22 4 60 18 84 32 63 37
188 167 244 254 82 126 72 118 114 96 63 -34 63 -34 6 -163 -56 -125 -74 -208
-49 -224 25 -16 50 -10 89 21 45 36 44 36 81 9 28 -19 28 -21 14 -48 -20 -39
-96 -105 -152 -131 -106 -50 -203 -2 -203 100 0 27 -4 51 -9 54 -4 3 -37 -19
-72 -50 -88 -76 -171 -115 -258 -122 -58 -4 -75 -1 -108 18 -68 38 -90 101
-73 205 16 98 63 179 159 276 127 127 293 214 453 238 98 14 103 13 106 -37z
m1836 39 c3 -4 2 -28 -2 -52 l-8 -44 -59 -6 c-91 -9 -166 -34 -232 -79 -115
-76 -178 -166 -190 -270 -5 -47 -4 -51 30 -85 26 -26 43 -35 69 -35 45 0 123
38 181 88 27 23 51 42 55 42 4 -1 20 -11 35 -24 l29 -23 -17 -34 c-46 -90
-134 -163 -239 -199 -136 -46 -262 -5 -318 103 -16 31 -22 60 -22 113 0 64 4
80 39 150 61 121 169 225 305 292 58 29 125 57 150 61 60 12 188 13 194 2z
m-2687 -1543 c10 -20 17 -57 17 -90 1 -32 2 -58 4 -58 1 0 29 27 61 60 66 67
110 90 174 90 34 0 49 -6 69 -27 36 -38 42 -70 28 -140 -16 -74 -41 -124 -93
-180 -66 -71 -120 -98 -199 -98 -82 0 -96 11 -73 55 16 31 18 32 63 26 36 -5
56 -2 81 12 69 37 128 161 103 216 -24 54 -96 21 -168 -76 -80 -109 -146 -250
-225 -483 -50 -150 -50 -149 -112 -126 -31 12 -42 -28 97 363 58 164 106 310
106 325 0 15 -7 52 -14 81 l-14 52 26 15 c40 21 50 18 69 -17z m1347 16 c23
-23 20 -44 -24 -180 -22 -68 -40 -135 -40 -149 0 -35 26 -42 60 -16 33 24 42
25 57 10 15 -15 -4 -53 -44 -90 -80 -74 -152 -63 -174 27 l-11 44 -42 -33
c-92 -76 -162 -91 -202 -43 -35 40 -32 81 7 102 31 16 32 15 53 -11 18 -22 27
-26 47 -20 55 17 138 127 202 266 48 105 76 129 111 93z m352 3 c2 -1 -6 -36
-17 -77 -10 -40 -19 -79 -19 -86 0 -7 27 16 61 51 59 61 147 113 169 100 12
-7 13 -65 2 -81 -4 -6 -23 -16 -43 -23 -19 -6 -52 -29 -74 -51 -34 -35 -37
-42 -32 -77 7 -42 30 -77 70 -106 l26 -20 35 26 c41 32 48 33 70 9 15 -18 14
-21 -14 -60 -36 -49 -76 -72 -127 -72 -32 0 -46 7 -75 38 -20 20 -41 47 -47
60 -7 12 -15 22 -20 22 -4 0 -23 -27 -40 -60 -28 -53 -36 -60 -54 -54 -59 18
-68 24 -63 42 3 9 8 35 11 57 20 118 83 332 108 363 9 12 62 11 73 -1z m-4657
-8 c17 -6 31 -15 31 -20 0 -5 -18 -45 -40 -89 -22 -44 -40 -84 -40 -90 0 -7
21 -10 58 -8 l57 3 50 100 c47 93 52 100 83 103 45 5 49 -15 14 -84 -41 -82
-89 -222 -103 -299 l-11 -65 -49 0 c-44 0 -49 2 -49 23 0 21 10 62 25 115 7
20 4 22 -33 22 -85 0 -108 -28 -133 -164 -12 -61 -14 -66 -38 -66 -78 1 -85
18 -50 125 12 36 20 68 17 70 -3 3 -19 0 -37 -6 -40 -14 -61 -6 -61 25 0 30 8
36 85 56 l60 16 38 80 c39 80 85 164 91 164 2 0 17 -5 35 -11z m1569 -4 c3 -3
-7 -40 -21 -83 -15 -42 -27 -83 -27 -90 0 -6 32 22 72 64 105 110 181 141 229
93 19 -19 21 -29 15 -77 l-7 -55 70 66 c75 71 127 94 183 82 22 -5 34 -16 44
-41 17 -40 13 -62 -33 -166 -52 -119 -41 -159 27 -102 31 27 32 27 51 7 20
-19 20 -20 -22 -66 -70 -80 -137 -99 -184 -52 -33 32 -31 59 10 159 52 125 44
165 -26 136 -42 -18 -90 -84 -155 -217 -31 -62 -61 -113 -66 -113 -14 0 -78
28 -78 35 0 3 16 61 35 128 44 151 45 177 8 177 -47 0 -171 -157 -224 -285
-12 -30 -26 -55 -31 -55 -5 0 -24 7 -44 15 -39 16 -39 4 3 164 26 100 66 218
90 265 13 24 19 27 46 22 17 -3 33 -8 35 -11z m-860 -32 c4 -25 -4 -29 -98
-57 -99 -29 -195 -118 -207 -190 -21 -128 134 -57 243 112 18 28 38 52 43 52
16 0 61 -23 61 -30 0 -4 -13 -36 -30 -71 -39 -85 -48 -127 -27 -135 9 -3 28 3
43 15 20 16 31 18 45 10 28 -14 23 -37 -13 -71 -36 -34 -86 -58 -118 -58 -29
0 -70 44 -70 75 0 14 -2 25 -5 25 -3 0 -27 -17 -54 -38 -129 -102 -261 -70
-247 60 13 125 135 250 296 305 82 29 134 27 138 -4z m1940 0 c4 -25 -4 -29
-101 -57 -99 -29 -207 -133 -207 -200 0 -115 142 -40 253 132 15 23 32 42 37
42 15 0 60 -23 60 -30 0 -4 -13 -36 -29 -71 -39 -87 -47 -127 -27 -135 8 -3
27 3 42 15 20 16 31 18 45 10 27 -14 24 -33 -13 -70 -34 -33 -84 -59 -116 -59
-33 0 -72 38 -72 71 0 35 -4 36 -42 4 -70 -59 -157 -86 -209 -65 -116 49 -47
252 124 362 65 42 171 79 217 75 28 -1 36 -7 38 -24z m1110 11 c24 -16 29 -55
13 -97 -17 -45 -94 -107 -189 -155 l-94 -46 23 -19 c26 -21 65 -16 117 14 40
23 71 24 79 3 14 -37 -110 -121 -194 -131 -129 -15 -201 97 -144 224 36 78
144 177 229 208 51 19 132 19 160 -1z m1624 -1 c22 -20 24 -73 3 -113 -21 -41
-103 -104 -191 -146 -41 -19 -74 -40 -74 -45 0 -5 11 -14 25 -19 25 -10 43 -6
132 31 29 12 35 11 49 -3 14 -14 13 -18 -21 -51 -73 -71 -187 -103 -257 -74
-68 28 -95 111 -65 194 31 83 147 197 232 227 57 20 144 20 167 -1z"/>
<path d="M6335 9019 c-28 -23 -50 -46 -51 -53 0 -6 -10 -31 -23 -54 -21 -41
-23 -43 -36 -25 -7 10 -17 14 -21 10 -5 -4 -2 -12 6 -17 12 -7 13 -15 3 -39
-6 -17 -9 -40 -6 -50 3 -12 -4 -31 -16 -47 -12 -15 -21 -41 -21 -60 0 -18 -5
-45 -10 -59 -9 -23 -13 -25 -25 -15 -12 10 -15 9 -15 -5 0 -9 -9 -28 -19 -41
-15 -19 -20 -41 -20 -96 0 -39 2 -68 5 -65 8 8 26 79 25 102 0 16 2 17 9 5 7
-11 11 -9 19 13 6 16 11 31 11 35 0 3 18 41 40 84 23 43 41 80 40 83 -2 34 3
56 20 75 11 13 20 30 20 40 0 9 11 31 25 50 14 19 25 38 25 43 0 4 13 25 29
45 22 29 47 82 37 82 -1 0 -24 -19 -51 -41z"/>
<path d="M3491 8736 c-25 -26 -21 -45 17 -79 19 -18 20 -61 1 -73 -29 -18 16
-40 100 -50 53 -6 61 -4 61 10 0 9 -7 16 -15 16 -8 0 -15 5 -15 10 0 6 7 10
15 10 19 0 19 14 1 29 -11 9 -20 9 -35 2 -23 -13 -51 -5 -51 15 0 14 7 17 50
18 18 1 25 7 25 21 0 16 -6 19 -27 17 -39 -5 -50 5 -37 29 8 17 7 23 -8 35
-27 20 -57 17 -82 -10z"/>
<path d="M3640 8752 c0 -15 59 -63 97 -79 40 -16 165 -17 181 -1 14 14 16 32
3 24 -15 -10 -57 11 -85 41 -23 24 -27 26 -38 11 -11 -13 -23 -14 -68 -8 -30
4 -63 10 -72 15 -11 4 -18 3 -18 -3z"/>
<path d="M5857 8256 c-20 -8 -47 -21 -60 -30 -12 -9 -53 -37 -92 -62 -64 -43
-72 -46 -100 -36 -27 10 -28 10 -11 -3 11 -8 29 -15 40 -15 12 -1 32 -7 46
-15 41 -23 79 -19 90 10 11 29 26 31 57 10 21 -15 66 -14 142 1 31 6 34 5 28
-15 -6 -24 -7 -24 29 -11 30 12 54 -1 54 -30 0 -20 -18 -29 -58 -31 -21 -1
-16 -4 21 -16 46 -14 48 -14 67 9 30 36 24 54 -36 100 -53 41 -102 87 -138
129 -19 22 -28 23 -79 5z"/>
<path d="M6413 7955 c-94 -20 -104 -30 -49 -44 25 -6 53 -19 63 -29 10 -10 34
-24 53 -32 47 -17 118 -48 155 -67 17 -9 44 -19 61 -23 30 -7 31 -7 25 24 -6
25 -15 34 -61 52 -30 13 -66 25 -80 28 -48 11 -55 21 -43 60 6 19 8 37 5 40
-9 9 -62 5 -129 -9z"/>
<path d="M6740 7808 c0 -13 19 -42 47 -70 26 -26 44 -51 40 -55 -4 -3 -13 0
-20 8 -16 20 -67 52 -67 42 0 -4 10 -17 22 -30 33 -35 15 -38 -25 -4 -19 17
-37 31 -40 31 -4 0 -11 -18 -17 -39 -13 -51 1 -120 30 -143 37 -30 164 -55
176 -36 9 14 22 9 27 -11 6 -24 46 -48 48 -29 1 7 3 23 4 36 2 18 -2 21 -16
17 -11 -4 -19 -2 -19 4 0 6 7 11 15 11 20 0 19 34 -1 51 -9 7 -23 30 -31 51
-8 21 -19 38 -24 38 -5 0 -13 10 -18 23 -5 12 -27 46 -50 75 -45 56 -81 70
-81 30z"/>
<path d="M7373 7265 c-15 -16 -17 -26 -5 -23 4 0 14 -1 22 -4 24 -9 369 -41
588 -55 69 -4 102 -2 102 5 0 19 -259 52 -417 52 -106 0 -186 11 -225 31 -25
13 -51 10 -65 -6z"/>
<path d="M2562 7165 c-19 -16 -31 -38 -36 -63 -3 -22 -14 -50 -24 -63 -26 -34
-45 -95 -39 -127 3 -15 -3 -65 -13 -112 -30 -136 -40 -204 -47 -308 -7 -116 5
-372 18 -372 5 0 9 10 9 23 0 12 9 51 20 85 16 52 20 92 20 215 0 84 5 184 11
222 5 39 14 103 19 144 6 40 18 87 29 105 10 17 21 48 24 70 4 21 14 47 24 58
11 13 19 41 21 84 2 35 2 64 -1 64 -3 0 -19 -11 -35 -25z"/>
<path d="M2561 6052 c-1 -33 3 -63 8 -66 7 -5 6 -15 -1 -32 -10 -20 -9 -27 3
-35 11 -7 11 -11 1 -17 -13 -9 -6 -61 20 -144 11 -38 28 -51 28 -23 0 8 5 15
11 15 13 0 9 35 -20 170 -11 52 -20 109 -20 126 -1 16 -7 38 -14 48 -12 16
-14 11 -16 -42z"/>
<path d="M3087 4524 c-6 -6 27 -54 52 -77 21 -20 61 -60 151 -152 52 -53 109
-104 125 -112 17 -9 44 -28 61 -43 42 -37 138 -100 152 -100 6 0 17 -6 24 -12
29 -28 126 -88 158 -99 19 -7 46 -20 59 -31 13 -10 31 -18 40 -18 9 0 35 -9
56 -21 55 -29 188 -77 260 -94 33 -8 84 -23 113 -35 53 -20 98 -25 140 -14 26
7 29 23 5 30 -10 3 -38 16 -63 29 -25 13 -68 29 -95 36 -56 14 -125 47 -125
59 0 5 8 7 18 6 9 -2 23 6 30 16 10 13 17 16 26 9 6 -5 17 -6 24 -2 15 9 110
2 133 -9 8 -5 21 -5 28 -1 18 12 -41 31 -95 31 -23 0 -44 5 -46 10 -2 6 -14
12 -26 15 -13 2 -33 7 -45 11 -19 6 -20 5 -8 -10 7 -9 21 -16 29 -16 13 0 12
-3 -4 -14 -10 -8 -20 -10 -22 -5 -2 5 -21 9 -41 9 -27 0 -38 -4 -38 -15 0 -9
6 -14 12 -11 6 2 12 -3 12 -11 0 -23 -80 -9 -151 27 -32 16 -71 30 -86 30 -15
0 -33 7 -40 15 -7 8 -40 28 -74 45 -84 43 -191 106 -250 147 -17 13 -42 28
-56 35 -14 7 -53 36 -87 65 -33 29 -68 53 -77 53 -9 0 -47 29 -84 65 -84 81
-86 82 -126 128 -31 35 -54 45 -69 31z"/>
<path d="M4228 6343 c-10 -2 -18 -11 -18 -19 0 -8 -4 -14 -10 -14 -5 0 -10 5
-10 10 0 20 -17 8 -95 -66 -44 -41 -90 -82 -102 -91 -30 -20 -29 -26 8 -61 74
-69 239 -60 315 16 48 48 123 59 251 37 98 -17 103 -17 140 1 39 20 45 35 29
82 -6 19 -4 22 18 22 14 0 26 3 26 8 0 4 -45 8 -100 9 -61 0 -135 9 -192 22
-246 57 -225 53 -260 44z"/>
<path d="M4392 6089 c-36 -24 -49 -57 -33 -88 20 -37 59 -24 82 28 l19 44 83
-7 c148 -14 277 -4 277 21 0 5 -48 9 -107 10 -60 0 -148 4 -198 7 -81 6 -93 5
-123 -15z"/>
<path d="M3429 3196 c-2 -2 -59 -12 -126 -21 -113 -16 -134 -16 -310 -1 -234
20 -316 20 -429 1 -218 -38 -364 -167 -364 -323 0 -85 32 -125 120 -147 69
-17 228 34 303 97 47 39 27 44 -50 13 -127 -51 -211 -44 -263 22 -18 22 -21
37 -18 74 8 77 64 131 174 168 100 33 198 36 399 11 99 -12 187 -24 195 -27 9
-2 -2 -14 -32 -34 -60 -39 -128 -128 -192 -249 -50 -96 -53 -99 -141 -158
-117 -79 -201 -151 -276 -237 -115 -132 -169 -229 -169 -303 0 -54 12 -77 52
-98 41 -21 93 -14 148 21 41 26 46 27 96 16 174 -39 397 12 577 133 214 143
336 334 325 513 -4 83 -28 121 -92 151 -101 48 -208 38 -354 -33 -108 -52
-106 -55 -39 85 28 58 58 102 97 141 l55 55 103 12 c154 18 272 62 272 103 0
14 -7 19 -28 19 -16 0 -31 -2 -33 -4z m-214 -480 c50 -21 70 -65 70 -157 0
-67 -4 -83 -37 -150 -115 -233 -409 -407 -622 -368 -33 6 -69 15 -79 21 -18 9
-17 12 15 46 68 72 131 184 247 443 l52 117 57 25 c69 31 85 34 185 36 47 0
91 -5 112 -13z m-475 -150 c0 -24 -111 -240 -165 -322 -57 -85 -134 -164 -160
-164 -60 0 -78 58 -41 134 32 65 165 226 236 286 101 85 130 100 130 66z"/>
<path d="M2984 2682 c-88 -31 -94 -39 -168 -203 -71 -159 -125 -260 -182 -342
-19 -26 -34 -49 -34 -51 0 -12 106 -16 161 -6 182 33 372 180 453 350 26 55
31 77 31 142 0 67 -3 80 -23 100 -19 20 -35 23 -105 26 -59 2 -96 -3 -133 -16z"/>
<path d="M2584 2424 c-120 -118 -206 -248 -191 -289 10 -26 48 -3 100 61 57
68 171 266 165 285 -2 6 -35 -19 -74 -57z"/>
<path d="M5302 2738 c-5 -7 -44 -82 -86 -167 -91 -183 -168 -304 -236 -372
-51 -51 -117 -88 -158 -89 -30 0 -77 25 -95 50 -13 18 -18 19 -41 9 -30 -14
-33 -37 -9 -82 22 -44 41 -56 89 -57 83 0 211 87 299 204 52 70 53 70 73 58
10 -7 10 -23 1 -79 -25 -150 10 -210 117 -204 33 2 108 57 143 106 40 55 33
71 -12 28 -84 -80 -178 -30 -164 87 3 26 35 138 71 248 36 111 66 212 66 224
0 41 -36 62 -58 36z"/>
<path d="M6969 2658 c-33 -58 -127 -255 -148 -309 -7 -21 -25 -28 -130 -52
-103 -24 -121 -31 -121 -48 0 -23 -9 -23 92 1 46 11 93 20 105 20 21 0 21 -1
-12 -74 -40 -89 -75 -198 -75 -236 0 -23 5 -29 31 -34 17 -3 35 -6 39 -6 5 0
11 23 15 52 9 64 37 161 71 249 l27 68 71 12 c73 12 220 18 230 9 3 -3 -8 -44
-24 -90 -15 -47 -31 -106 -35 -133 -7 -46 -6 -47 18 -47 14 0 32 -3 40 -6 12
-4 17 7 22 48 19 139 99 377 186 550 22 43 39 80 39 83 0 3 -9 5 -20 5 -24 0
-58 -57 -137 -232 -53 -115 -60 -127 -80 -122 -12 4 -77 1 -144 -6 -66 -6
-123 -9 -126 -6 -9 9 18 78 83 215 35 73 61 137 58 142 -15 24 -42 5 -75 -53z"/>
<path d="M4218 2690 c-248 -42 -506 -241 -562 -434 -48 -165 11 -252 151 -227
93 18 157 55 256 152 77 76 93 87 105 75 11 -11 11 -21 3 -52 -26 -94 -8 -158
50 -176 35 -10 44 -8 103 21 62 30 140 101 119 108 -6 2 -28 -8 -48 -22 -93
-63 -173 4 -140 116 4 13 28 72 53 132 43 102 44 108 27 121 -17 12 -22 9 -52
-41 -110 -183 -296 -343 -401 -343 -74 0 -112 44 -112 128 0 86 27 139 115
227 93 93 200 152 327 182 46 11 78 23 78 31 0 13 -3 13 -72 2z"/>
<path d="M6258 2690 c-112 -19 -243 -78 -346 -155 -263 -198 -316 -541 -79
-510 89 12 168 57 270 155 72 69 96 86 109 79 14 -8 15 -14 2 -56 -29 -96 -13
-157 47 -174 32 -10 44 -8 92 14 53 24 137 90 137 108 0 16 -20 10 -54 -16
-45 -34 -98 -34 -125 1 -36 46 -24 113 52 277 35 75 35 77 15 88 -24 13 -16
21 -79 -76 -106 -164 -282 -305 -380 -305 -88 0 -129 87 -95 202 41 141 229
288 429 334 47 11 77 23 77 31 0 14 -3 14 -72 3z"/>
<path d="M8074 2700 c-242 -36 -503 -265 -522 -459 -21 -220 239 -289 429
-114 33 31 65 65 70 76 20 36 -6 37 -51 1 -125 -99 -235 -109 -298 -26 -23 30
-27 44 -26 96 4 175 195 349 423 387 57 9 83 29 53 41 -9 4 -19 6 -22 6 -3 0
-28 -4 -56 -8z"/>
</g>
</svg>
